<svg xmlns="http://www.w3.org/2000/svg" xmlns:xlink="http://www.w3.org/1999/xlink" fill="none" version="1.1" width="600" height="600" viewBox="0 0 600 600"><clipPath id="master_svg0_1_0"><rect x="0" y="0" width="600" height="600" rx="0"/></clipPath><g clip-path="url(#master_svg0_1_0)" style="mix-blend-mode:passthrough"><g><g style="mix-blend-mode:passthrough"><g><g style="mix-blend-mode:passthrough"><path d="M62.1423,224.059C41.9477,325.032,65.6241,418.345,119.9407,462.216C174.257,506.087,220.914,538.816,317.012,538.816Q413.111,538.816,489.015,448.289Q489.015,455.336,491.307,456.184Q497.396,458.435,519.655,416.952C550.2950000000001,359.85,566.3109999999999,217.095,489.015,137.01319999999998C415.571,60.92288,385.506,62.15948,377.912,62.471806C377.514,62.488191,377.177,62.502032,376.9,62.502031Q375.564,62.502028,375.189,63.10218Q374,65.0058,382.471,72.9475Q365.758,62.502031,346.26,62.502031Q334.078,62.502031,333.856,64.13282Q333.722,65.11235,337.903,66.68023Q284.97900000000004,54.842,231.359,72.9475C177.739,91.053,186.095,78.5185,163.812,104.28399999999999C141.5281,130.0496,107.40610000000001,166.261,99.7461,166.261C95.72409999999999,166.261,103.221,152.24599999999998,110.3421,138.93380000000002C116.7834,126.8925,122.9173,115.4259,119.9407,115.4259C113.6733,115.42580000000001,82.3369,123.08590000000001,62.1423,224.059Z" fill="#000000" fill-opacity="1"/></g><g style="mix-blend-mode:passthrough"><path d="M285.704,199.1463C285.704,202.0014,270.7183,256.2933,263.4055,271.6154C261.1256,276.3923,254.622,292.784,246.63049999999998,313.243C265.435,360.89,285.704,411.935,285.704,415.163C285.704,422.828,267.5863,435.37,261.315,427.009C259.337,424.371,245.5276,389,231.3513,352.52099999999996C217.1755,388.999,203.3667,424.368,201.3888,427.006C195.1174,435.368,177.0000839233,422.825,177.000114441,415.15999999999997C177.000122839,411.932,197.2679,360.889,216.0721,313.243C208.0812,292.78499999999997,201.578,276.39480000000003,199.2982,271.6181C191.9854,256.296,177,202.0041,177,199.1491C177,191.48405,193.0268,183.12219,199.2982,191.48406C200.77100000000002,193.44783,211.8529,216.8166,215.3249,231.2027C216.3389,235.404,222.76330000000002,252.34120000000001,231.3513,274.363C239.9399,252.3399,246.3648,235.4015,247.3788,231.2C250.8508,216.8139,261.9327,193.44511,263.4056,191.48134C269.6769,183.11948,285.704,191.48133,285.704,199.1463ZM319.151,374.05C319.151,356.63,313.576,304.369,313.576,279.9799Q313.576,255.5913,319.151,201.2395C324.725,194.27135,335.874,190.78728,341.449,201.2395C344.076,206.166,343.918,236.1707,343.745,268.7805L343.745,268.7805C343.551,305.35699999999997,343.34000000000003,345.21000000000004,347.024,356.63L347.086,356.823C354.02099999999996,378.323,358.932,393.547,379.774,388.68399999999997Q400.679,383.80600000000004,390.923,222.8409Q389.437,207.4882,395.695,203.0471Q398.24199999999996,201.2395,402.072,201.2395C403.305,201.2395,404.472,201.2033,405.574,201.169C416.302,200.8355,420.88599999999997,200.693,420.88599999999997,236.0804C420.88599999999997,241.1189,420.90999999999997,246.94729999999998,420.935,253.3363C421.10699999999997,296.428,421.38,365.017,415.312,388.68399999999997C408.344,415.85900000000004,386.04499999999996,423.524,366.534,423.524C347.024,423.524,319.151,391.471,319.151,374.05Z" fill-rule="evenodd" fill="#FFFFFF" fill-opacity="1"/></g></g></g></g></g></svg>
